<?xml version="1.0" encoding="utf-8"?>
<!-- Generator: Adobe Illustrator 25.0.0, SVG Export Plug-In . SVG Version: 6.00 Build 0)  -->
<svg version="1.1" id="Layer_1" xmlns="http://www.w3.org/2000/svg" xmlns:xlink="http://www.w3.org/1999/xlink" x="0px" y="0px"
	 viewBox="0 0 360 128" style="enable-background:new 0 0 360 128;" xml:space="preserve">
<style type="text/css">
	.st0{fill:#111028;}
	.st1{fill:none;}
	.st2{fill:#FFFFFF;}
	.st3{fill:#15B6C2;}
	.st4{clip-path:url(#SVGID_2_);fill:#15B6C2;}
	.st5{fill:#173862;}
</style>
<path class="st0" d="M337.3,84.5c-1.8,0.5-3.7,0.8-5.9,0.8c-2,0-3.9-0.3-5.7-1c-1.8-0.7-3.4-1.6-4.9-2.8c-1.4-1.2-2.6-2.6-3.5-4.2
	c-0.9-1.6-1.4-3.4-1.5-5.4h41.5c-0.2-7.6-0.6-12.9-1.9-16.5c-1.3-3.7-3.2-6.7-5.5-9.2c-2.3-2.5-5.1-4.3-8.4-5.6
	c-3.2-1.3-6.7-1.9-10.5-1.9c-4.1,0-7.9,0.7-11.4,2.1c-3.5,1.4-6.6,3.4-9.1,5.9c-2.6,2.5-4.6,5.6-6.1,9.2c-1.5,3.6-2.2,7.6-2.2,12
	c0,4.5,0.7,8.5,2.2,12c1.5,3.5,3.5,6.5,6.1,8.9c2.6,2.4,5.7,4.3,9.3,5.6c3.6,1.3,7.5,2,11.7,2c4.5,0,8.6-0.8,12.1-2.2
	C340,92.4,337.5,88.8,337.3,84.5z M320.5,52.6c2.8-2.5,6.3-3.7,10.4-3.7c2.2,0,4.1,0.4,5.7,1.1c1.6,0.7,3,1.7,4,2.9
	c1.1,1.2,1.8,2.6,2.3,4.2c0.5,1.6,0.7,3.3,0.7,5h-28C316.1,58.2,317.7,55.1,320.5,52.6z"/>
<path class="st0" d="M280,24.5v22.3h-0.3c-0.7-0.9-1.6-1.9-2.6-2.8c-1.1-1-2.3-1.9-3.8-2.7c-1.5-0.8-3.2-1.5-5.2-2.1
	c-2-0.6-4.2-0.9-6.7-0.9c-3.9,0-7.4,0.7-10.7,2.2c-3.3,1.5-6.1,3.5-8.4,6.1c-2.3,2.6-4.2,5.6-5.5,9.1c-1.3,3.5-1.9,7.2-1.9,11.2
	c0,4,0.6,7.8,1.9,11.3c1.3,3.5,3,6.6,5.3,9.2c2.3,2.6,5.1,4.7,8.4,6.3c3.3,1.6,7,2.3,11.2,2.3c3.9,0,7.5-0.8,10.9-2.5
	c3.4-1.7,6-4.1,7.9-7.3h0.2v8.2h13v-70 M276.6,73.4c-0.7,2.1-1.8,4-3.2,5.6c-1.4,1.7-3.1,3-5.1,4c-2,1-4.2,1.5-6.7,1.5
	c-2.7,0-5-0.5-6.9-1.6c-2-1.1-3.6-2.4-4.9-4.1c-1.3-1.7-2.3-3.6-2.9-5.7c-0.6-2.1-1-4.2-1-6.4c0-2.1,0.3-4.2,1-6.3
	c0.6-2.1,1.6-4,2.9-5.6c1.3-1.7,2.9-3,4.9-4c2-1,4.3-1.5,6.9-1.5c2.5,0,4.7,0.5,6.7,1.6c2,1.1,3.7,2.4,5.1,4.1
	c1.4,1.7,2.5,3.6,3.2,5.7c0.7,2.1,1.1,4.2,1.1,6.4C277.7,69.2,277.4,71.3,276.6,73.4z"/>
<path class="st0" d="M163.7,43c-8.6-3.9-13.8-0.9-13.8-0.9s0,0,0,0.1c-1,0.4-2,1-2.9,1.6c-2.7,2-4,3.4-5.6,6.6h-0.2v-9.1h-13.1v54.5
	h13.6V66.6c0-1,0.2-2.3,0.6-4c0.4-1.7,1.1-3.3,2.2-4.9c1.1-1.6,2.5-3,4.4-4.1c1-0.6,2.1-1,3.4-1.3c0,0,0,0,0,0
	c1.1-0.2,2.1-0.3,3-0.2c0.4,0.1,0.8,0.2,1.2,0.3c2.1,0.5,3.9,1.3,5.5,2.2l8.6-7.9C168.6,45.3,166.2,44,163.7,43z"/>
<path class="st1" d="M212.4,57.1c-0.5-1.6-1.3-3-2.3-4.2c-1.1-1.2-2.4-2.2-4-2.9c-1.6-0.7-3.5-1.1-5.7-1.1c-4.1,0-7.6,1.2-10.4,3.7
	c-2.8,2.5-4.4,5.6-4.7,9.5h28C213.2,60.3,212.9,58.7,212.4,57.1z"/>
<path class="st0" d="M210.2,82.2c-0.8,0.9-1.7,1.6-2.7,2.2c-3.5,1.4-4.6,1.1-6.8,1.1c-2,0-3.8-0.5-5.7-1.2c-1.8-0.7-3.3-1.7-4.7-2.9
	c-1.4-1.2-2.6-2.6-3.5-4.2c-0.4-0.7-0.6-1.3-0.9-2.1c-0.3-1.1-0.6-2.2-0.7-3.3h41.5c-0.2-7.6-0.6-12.9-1.9-16.5
	c-1.3-3.7-3.2-6.7-5.5-9.2c-2.3-2.5-5.1-4.3-8.4-5.6c-3.2-1.3-6.7-1.9-10.5-1.9c-4.1,0-7.9,0.7-11.4,2.1c-3.5,1.4-6.6,3.4-9.1,5.9
	c-2.6,2.5-4.6,5.6-6.1,9.2c-1.5,3.6-2.2,7.6-2.2,12c0,2.6,0.2,5,0.7,7.3c0.4,1.6,0.8,3.2,1.5,4.7c1.5,3.5,3.5,6.5,6.1,8.9
	c2.6,2.4,5.7,4.3,9.3,5.6c1.4,0.5,2.9,1,4.4,1.3c2.2,0.5,4.5,0.7,6.9,0.7c0.1,0,0.1,0,0.2,0c0.1,0,0.1,0,0.2,0c0.2,0,0.4,0,0.7,0
	c3.4-0.1,6.5-0.7,9.5-1.9c1.6-0.6,3.1-1.4,4.5-2.3c0,0,0,0,0,0c0,0,0,0,0,0c1.4-0.9,2.7-2,3.9-3.3c2.3-2.5,4.6-6.2,5.9-9.8l-13.2,0
	C211.6,80.8,211.2,81,210.2,82.2z M189.9,52.6c2.8-2.5,6.3-3.7,10.4-3.7c2.2,0,4.1,0.4,5.7,1.1c1.6,0.7,3,1.7,4,2.9
	c1.1,1.2,1.8,2.6,2.3,4.2c0.5,1.6,0.7,3.3,0.7,5h-28C185.5,58.2,187.1,55.1,189.9,52.6z"/>
<path class="st2" d="M348.3,95.4c-5.6,0.9-10.8-3-11.7-8.6c-0.9-5.6,3-10.8,8.6-11.7c5.6-0.9,10.8,3,11.7,8.6
	C357.7,89.3,353.9,94.5,348.3,95.4z"/>
<path class="st3" d="M347.7,91.3c-3.4,0.5-6.5-1.8-7-5.1c-0.5-3.4,1.8-6.5,5.1-7c3.4-0.5,6.5,1.8,7,5.1
	C353.3,87.7,351,90.8,347.7,91.3z"/>
<g>
	<defs>
		<path id="SVGID_1_" d="M64,67.3c0,4.6,1.1,8.9,2.9,12.8L80.4,69c1.4-1.1,1.7-3,0.8-4.5L81,64c-0.7-1.1-0.7-2.4,0-3.6
			c0.7-1.1,1.8-1.8,3.1-1.8l17.9,0c1.3,0,2.4,0.6,3.1,1.8c0.7,1.1,0.7,2.4,0,3.6l-9,15.5c-0.7,1.1-1.8,1.8-3.1,1.8
			c-1.3,0-2.4-0.6-3.1-1.8l-0.3-0.5c-0.9-1.5-2.7-2.2-4.3-1.6L69,83.7l-11.8,4.4L70.8,86c5.3,6.4,13.3,10.4,22.3,10.4
			c16,0,29-13,29-29s-13-29-29-29C77.2,38.3,64,51.1,64,67.3"/>
	</defs>
	<use xlink:href="#SVGID_1_"  style="overflow:visible;fill-rule:evenodd;clip-rule:evenodd;fill:#15B6C2;"/>
	<clipPath id="SVGID_2_">
		<use xlink:href="#SVGID_1_"  style="overflow:visible;"/>
	</clipPath>
	<rect x="57.3" y="38.3" class="st4" width="64.8" height="58.1"/>
</g>
<g>
	<g>
		<path class="st5" d="M45.3,79.4c-2.4,2.3-5.5,3.9-9,4.4c-9.2,1.4-17.8-4.9-19.2-14.1s4.9-17.8,14.1-19.2c4-0.6,7.9,0.2,11.1,2.1
			c-0.9-1-1.1-1.8-1.2-3.4c-0.3-3.3,1.3-5.5,4.1-6.5c1.2-0.4,2.1-0.5,3.3-0.3c-5.6-3.3-12.3-4.8-19.2-3.7
			C13.5,41.1,2.7,55.8,5.2,71.6c2.4,15.8,17.2,26.6,32.9,24.1c6.8-1,12.7-4.4,16.9-9.1L45.3,79.4L45.3,79.4z"/>
		<path class="st0" d="M45.3,79.4c-2.4,2.3-5.5,3.9-9,4.4c-9.2,1.4-17.8-4.9-19.2-14.1s4.9-17.8,14.1-19.2c4-0.6,7.9,0.2,11.1,2.1
			c-0.9-1-1.1-1.8-1.2-3.4c-0.3-3.3,1.3-5.5,4.1-6.5c1.2-0.4,2.1-0.5,3.3-0.3c-5.6-3.3-12.3-4.8-19.2-3.7
			C13.5,41.1,2.7,55.8,5.2,71.6c2.4,15.8,17.2,26.6,32.9,24.1c6.8-1,12.7-4.4,16.9-9.1L45.3,79.4L45.3,79.4z"/>
	</g>
	<g>
		<path class="st5" d="M45.3,55.1c-2.4-2.3-5.5-3.9-9-4.4c-9.2-1.4-17.8,4.9-19.2,14.1S21.9,82.6,31.1,84c4,0.6,7.9-0.2,11.1-2.1
			c-0.9,1-1.1,1.8-1.2,3.4c-0.3,3.3,1.3,5.5,4.1,6.5c1.2,0.4,2.1,0.5,3.3,0.3c-5.6,3.3-12.3,4.8-19.2,3.7
			C13.5,93.4,2.7,78.7,5.2,62.9c2.4-15.8,17.2-26.6,32.9-24.1c6.8,1,12.7,4.4,16.9,9.1L45.3,55.1L45.3,55.1z"/>
		<path class="st0" d="M45.3,55.1c-2.4-2.3-5.5-3.9-9-4.4c-9.2-1.4-17.8,4.9-19.2,14.1S21.9,82.6,31.1,84c4,0.6,7.9-0.2,11.1-2.1
			c-0.9,1-1.1,1.8-1.2,3.4c-0.3,3.3,1.3,5.5,4.1,6.5c1.2,0.4,2.1,0.5,3.3,0.3c-5.6,3.3-12.3,4.8-19.2,3.7
			C13.5,93.4,2.7,78.7,5.2,62.9c2.4-15.8,17.2-26.6,32.9-24.1c6.8,1,12.7,4.4,16.9,9.1L45.3,55.1L45.3,55.1z"/>
	</g>
</g>
</svg>
